<svg aria-hidden="true" style="position: absolute; width: 0; height: 0; overflow: hidden;" version="1.1" xmlns="http://www.w3.org/2000/svg" xmlns:xlink="http://www.w3.org/1999/xlink">
<defs>
<symbol id="look" viewBox="0 0 25 32">
<path fill="#fed136" style="fill: var(--color1, #fed136)" d="M12.544 1.304c4.128 0 7.472 2.928 7.472 6.536v7.464h0.928c1.552 0 2.8 1.256 2.8 2.8v10.264c0 1.552-1.248 2.8-2.8 2.8h-16.792c-1.552 0-2.8-1.248-2.8-2.8v-10.264c0-1.544 1.248-2.8 2.8-2.8h0.928v-7.464c0-3.608 3.344-6.536 7.464-6.536zM8.816 7.84v6.536c0 0.32 0.072 0.64 0.208 0.928h7.048c0.136-0.288 0.208-0.608 0.208-0.928v-6.536c0-1.544-1.672-2.8-3.736-2.8-2.056 0-3.728 1.256-3.728 2.8zM10.68 26.504c0 1.032 0.84 1.864 1.864 1.864 1.032 0 1.872-0.832 1.872-1.864v-1.432c1.122-0.658 1.864-1.859 1.864-3.233 0-2.063-1.672-3.735-3.735-3.735-0 0-0.001 0-0.001 0h0c-2.056 0-3.728 1.672-3.728 3.736 0 1.384 0.752 2.584 1.864 3.232v1.432z"></path>
</symbol>
<symbol id="basket" viewBox="0 0 32 32">
<path fill="#fed136" style="fill: var(--color1, #fed136)" d="M1.333 11.345c0-1.448 1.181-2.621 2.629-2.621h2.956c0.046-0.168 0.114-0.335 0.206-0.495l3.147-5.448c0.369-0.632 1.044-1.050 1.817-1.050 0.386 0 0.747 0.104 1.058 0.286l-0.010-0.005c1.006 0.579 1.349 1.867 0.77 2.865l-2.217 3.848h8.67l-2.217-3.848c-0.579-0.998-0.236-2.286 0.762-2.865 1.006-0.579 2.286-0.236 2.872 0.77l3.147 5.448c0.091 0.16 0.152 0.328 0.206 0.495h2.956c1.448 0 2.621 1.173 2.621 2.621s-1.173 2.621-2.621 2.621h-24.122c-1.448 0-2.629-1.173-2.629-2.621zM27.642 30.75h-23.238l-0.907-15.733h25.051l-0.907 15.733zM14.971 20.259v6.293c0 0.579 0.469 1.048 1.048 1.048s1.048-0.469 1.048-1.048v0-6.293c0-0.579-0.469-1.048-1.048-1.048s-1.048 0.469-1.048 1.048v0zM21.265 20.259v6.293c0 0.579 0.469 1.048 1.048 1.048s1.048-0.469 1.048-1.048v0-6.293c0-0.579-0.469-1.048-1.048-1.048s-1.048 0.469-1.048 1.048v0zM8.678 20.259v6.293c0 0.579 0.469 1.048 1.048 1.048s1.048-0.469 1.048-1.048v0-6.293c0-0.579-0.469-1.048-1.048-1.048s-1.048 0.469-1.048 1.048v0z"></path>
</symbol>
<symbol id="comp" viewBox="0 0 37 32">
<path fill="#fed136" style="fill: var(--color1, #fed136)" d="M7.23 1.643h23.265c1.929 0 3.494 1.565 3.494 3.494v15.127c0 0.407-0.069 0.796-0.199 1.159h0.199v2.326h-3.494v-18.612h-23.265v18.612h-3.494v-2.326h0.199c-0.126-0.343-0.199-0.739-0.199-1.152 0-0.003 0-0.005 0-0.008v0-15.127c0-1.929 1.565-3.494 3.494-3.494zM3.736 26.076h30.253c1.285 0 2.327 1.042 2.327 2.326v0c0 1.289-2.205 2.326-3.494 2.326h-27.918c-1.289 0-3.494-1.038-3.494-2.326 0-1.28 1.038-2.326 2.326-2.326zM14.21 28.99c0 0.32 0.519 0.579 1.159 0.579h6.988c0.64 0 1.159-0.259 1.159-0.579 0-0.329-0.519-0.588-1.159-0.588h-6.988c-0.64 0-1.159 0.259-1.159 0.588zM11.053 15.291l1.635-1.643c0.21-0.208 0.498-0.337 0.817-0.337s0.608 0.129 0.817 0.337l-0-0 2.153 2.162 6.919-6.954c0.45-0.458 1.185-0.458 1.635 0l1.643 1.643c0.45 0.45 0.45 1.194 0 1.643l-9.012 9.055c-0.389 0.389-0.977 0.441-1.427 0.164-0.381 0.087-0.796-0.009-1.090-0.311l-4.091-4.108c-0.458-0.458-0.458-1.194 0-1.652z"></path>
</symbol>
</defs>
</svg>
