<svg xmlns="http://www.w3.org/2000/svg" width="19" height="19" id="icon2"><style></style><g id="Partners"><g id="Partner 2"><path id="Shape 153" d="M15.3 15.3c-.6-.04-1.29-.08-2.03-.1.67-.59 1.25-1.36 1.67-2.25.2.21.46.36.75.43a1.54 1.54 0 001.21-.19c.37-.23.63-.58.73-1 .1-.43.03-.86-.19-1.23-.38-.62-1.1-.89-1.76-.72.03-.29.05-.59.05-.89a.56.56 0 00-.56-.56H4.83a.56.56 0 00-.56.56c0 2.42.97 4.56 2.46 5.85-.74.03-1.43.06-2.03.1-2.09.15-2.7.29-2.7.94 0 .64.61.79 2.7.93 1.42.1 3.3.16 5.3.16s3.88-.06 5.3-.16c2.09-.14 2.7-.29 2.7-.93 0-.65-.61-.79-2.7-.94zm.27-4.3h.01a.932.932 0 011.29.31c.13.22.16.47.11.72-.06.24-.21.45-.43.58-.21.13-.46.17-.7.11a.906.906 0 01-.58-.43c-.01-.01-.03-.02-.04-.04.14-.4.26-.82.34-1.25zM5.41 9.92h9.18c-.22 3.04-2.19 5.43-4.59 5.43s-4.37-2.39-4.59-5.43zm3.55-2.28H9c.14 0 .27-.07.36-.18a.44.44 0 00.06-.43c0-.01-.43-1.26.13-2.3.59-.99.78-1.79.57-2.37-.19-.52-.62-.66-.67-.67a.436.436 0 00-.55.3c-.07.24.06.49.28.56 0 0 .06.03.1.12.05.14.1.58-.49 1.57l-.02.03c-.04.08-.09.16-.14.24-.69 1.05-.89 1.89-.61 2.47.22.47.7.63.94.66zm2.39.08h.03c.13 0 .25-.06.33-.16.09-.12.11-.27.07-.41-.01-.01-.25-.72.06-1.29.39-.65.51-1.17.36-1.58-.14-.38-.44-.49-.5-.5-.22-.07-.46.07-.53.28-.03.11-.02.23.04.33.05.1.14.17.25.2-.03 0-.05-.01-.05-.01.01.02.07.23-.28.82l-.03.05c-.02.04-.05.08-.07.12-.46.71-.58 1.25-.39 1.66.16.33.47.47.71.49z" fill="#fff"/></g></g></svg>