<svg xmlns="http://www.w3.org/2000/svg" width="15" height="18" id="icon3"><style></style><g id="Partners"><g id="Partner 3"><path id="Shape 155" d="M13.22 14.99L10.15 6.7V4.26c.58-.2 1-.75 1-1.39v-.4c0-.81-.66-1.47-1.48-1.47H5.3c-.82 0-1.48.66-1.48 1.47v.4c0 .64.41 1.19.99 1.39V6.7l-3.06 8.27c-.18.46-.13.97.14 1.38.28.41.74.65 1.23.65h8.72c.5 0 .96-.24 1.23-.65.28-.41.33-.92.15-1.36zm-8.11-1.88c0-.28.22-.5.5-.5s.51.22.51.5-.23.5-.51.5-.5-.22-.5-.5zm3.25.44c.48 0 .87.38.87.86a.87.87 0 01-1.74 0c0-.48.39-.86.87-.86zm-.74-1.9a.625.625 0 111.25-.01.625.625 0 01-1.25.01zM5.79 6.87V3.85l-.01-.48H5.3a.51.51 0 01-.51-.5v-.4c0-.27.23-.5.51-.5h4.37c.28 0 .5.23.5.5v.4c0 .27-.22.5-.5.5h-.49v3.5l.85 2.32-.03.03c-.64.66-5.31.74-5.31.74h-.04l1.14-3.09zm1.35 1.87a.674.674 0 100-1.35c-.37 0-.68.3-.68.68 0 .37.31.67.68.67z" fill="#fff"/></g></g></svg>