<svg xmlns="http://www.w3.org/2000/svg" width="19" height="18" id="icon4"><style></style><g id="Partners"><g id="Partner 4"><path id="Shape 170" d="M17.44 1.53c-.05-.04-.12-.04-.18-.01L1.58 9.47c-.05.03-.09.09-.08.15 0 .07.05.12.11.14l4.96 1.57c.05.01.11 0 .16-.04l7.54-6.39-5.79 6.8a.14.14 0 00-.03.15c.01.05.05.09.1.11l5.83 1.75c.01.01.03.01.04.01.03 0 .06-.01.08-.02.04-.02.07-.06.08-.1l2.91-11.9c.02-.06-.01-.13-.05-.17zm-7.18 12.16l-1.61-.49c-.05-.01-.1 0-.15.03-.04.03-.06.08-.06.13v3.01c0 .07.05.13.12.15.01.01.03.01.04.01.05 0 .11-.03.14-.08l1.61-2.52a.17.17 0 00-.09-.24z" fill="#fff"/></g></g></svg>