<svg aria-hidden="true" style="position: absolute; width: 0; height: 0; overflow: hidden;" version="1.1" xmlns="http://www.w3.org/2000/svg" xmlns:xlink="http://www.w3.org/1999/xlink">
<defs>
<symbol id="icon-plane" viewBox="0 0 34 32">
<path fill="#fff" style="fill: var(--color1, #fff)" d="M31.004 2.72c-0.089-0.071-0.213-0.071-0.32-0.018l-27.876 14.133c-0.107 0.053-0.16 0.16-0.142 0.267 0 0.124 0.089 0.213 0.196 0.249l8.818 2.791c0.089 0.018 0.196 0 0.284-0.071l13.404-11.36-10.293 12.089c-0.071 0.071-0.089 0.178-0.053 0.267 0.018 0.089 0.089 0.16 0.178 0.196l10.364 3.111c0.018 0.018 0.053 0.018 0.071 0.018 0.053 0 0.107-0.018 0.142-0.036 0.071-0.036 0.124-0.107 0.142-0.178l5.173-21.156c0.036-0.107-0.018-0.231-0.089-0.302zM18.24 24.338l-2.862-0.871c-0.089-0.018-0.178 0-0.267 0.053-0.071 0.053-0.107 0.142-0.107 0.231v5.351c0 0.124 0.089 0.231 0.213 0.267 0.018 0.018 0.053 0.018 0.071 0.018 0.089 0 0.196-0.053 0.249-0.142l2.862-4.48c0.036-0.071 0.053-0.16 0.018-0.249s-0.089-0.142-0.178-0.178z"></path>
</symbol>
<symbol id="icon-tv" viewBox="0 0 30 32">
<path fill="#fff" style="fill: var(--color1, #fff)" d="M26.656 9.6h-9.072l3.584-4.304c0.048 0.016 0.096 0.032 0.16 0.032 0.592 0 1.072-0.48 1.072-1.056 0-0.592-0.48-1.072-1.072-1.072s-1.072 0.48-1.072 1.072v0c0 0.128 0.032 0.24 0.080 0.352l-4.144 4.976h-0.384l-4.144-4.976c0.032-0.112 0.064-0.224 0.064-0.352 0-0.592-0.48-1.072-1.072-1.072-0.563 0.032-1.007 0.496-1.007 1.064s0.444 1.032 1.004 1.064l0.003 0c0.064 0 0.112-0.016 0.176-0.032l3.584 4.304h-9.088c-1.168 0-2.128 0.96-2.128 2.128v14.944c0 1.184 0.96 2.128 2.128 2.128h21.328c1.184 0 2.144-0.944 2.144-2.128v-14.944c0-1.168-0.96-2.128-2.144-2.128zM22.4 24.544c0 1.168-0.96 2.128-2.144 2.128h-12.784c-1.184 0-2.144-0.96-2.144-2.128v-10.672c0-1.184 0.96-2.144 2.144-2.144h12.784c1.184 0 2.144 0.96 2.144 2.144v10.672zM25.536 15.008c-0.848 0-1.52-0.688-1.52-1.536 0-0.839 0.681-1.52 1.52-1.52s1.52 0.681 1.52 1.52v0c0 0.848-0.672 1.536-1.52 1.536z"></path>
</symbol>
<symbol id="icon-flask" viewBox="0 0 27 32">
<path fill="#fff" style="fill: var(--color1, #fff)" d="M23.502 26.649l-5.458-14.738v-4.338c1.031-0.356 1.778-1.333 1.778-2.471v-0.711c0-1.44-1.173-2.613-2.631-2.613h-7.769c-1.458 0-2.631 1.173-2.631 2.613v0.711c0 1.138 0.729 2.116 1.76 2.471v4.338l-5.44 14.702c-0.32 0.818-0.231 1.724 0.249 2.453 0.498 0.729 1.316 1.156 2.187 1.156h15.502c0.889 0 1.707-0.427 2.187-1.156 0.498-0.729 0.587-1.636 0.267-2.418zM9.084 23.307c0-0.498 0.391-0.889 0.889-0.889s0.907 0.391 0.907 0.889-0.409 0.889-0.907 0.889-0.889-0.391-0.889-0.889zM14.862 24.089c0.853 0 1.547 0.676 1.547 1.529s-0.692 1.547-1.547 1.547-1.547-0.692-1.547-1.547v0c0-0.853 0.693-1.529 1.547-1.529zM13.547 20.711c-0-0.003-0-0.006-0-0.009 0-0.614 0.497-1.111 1.111-1.111 0.611 0 1.106 0.492 1.111 1.102v0c0 0.003 0 0.006 0 0.009 0 0.614-0.497 1.111-1.111 1.111-0.611 0-1.106-0.492-1.111-1.102v-0zM10.293 12.213v-5.369l-0.018-0.853h-0.853c-0 0-0 0-0 0-0.495 0-0.897-0.396-0.906-0.888v-0.712c0-0.48 0.409-0.889 0.907-0.889h7.769c0.498 0 0.889 0.409 0.889 0.889v0.711c0 0.48-0.391 0.889-0.889 0.889h-0.871v6.222l1.511 4.124-0.053 0.053c-1.138 1.173-9.44 1.316-9.44 1.316h-0.071l2.027-5.493zM12.693 15.538c0.663 0 1.2-0.537 1.2-1.2s-0.537-1.2-1.2-1.2v0c-0.658 0-1.209 0.533-1.209 1.209 0 0.658 0.551 1.191 1.209 1.191z"></path>
</symbol>
<symbol id="icon-cup" viewBox="0 0 32 32">
<path fill="#fff" style="fill: var(--color1, #fff)" d="M25.768 25.768c-1.011-0.067-2.173-0.135-3.419-0.168 1.128-0.994 2.105-2.291 2.813-3.789 0.337 0.354 0.775 0.606 1.263 0.724 0.195 0.053 0.419 0.083 0.65 0.083 0.515 0 0.995-0.15 1.398-0.409l-0.010 0.006c0.623-0.387 1.061-0.977 1.229-1.684 0.168-0.724 0.051-1.448-0.32-2.072-0.64-1.044-1.853-1.499-2.964-1.213 0.051-0.488 0.084-0.994 0.084-1.499 0-0.521-0.422-0.943-0.943-0.943h-17.415c-0.521 0-0.943 0.422-0.943 0.943v0c0 4.076 1.634 7.68 4.143 9.853-1.246 0.051-2.408 0.101-3.419 0.168-3.52 0.253-4.547 0.488-4.547 1.583 0 1.078 1.027 1.331 4.547 1.566 2.392 0.168 5.558 0.269 8.926 0.269s6.535-0.101 8.926-0.269c3.52-0.236 4.547-0.488 4.547-1.566 0-1.095-1.027-1.331-4.547-1.583zM26.223 18.526h0.017c0.235-0.148 0.522-0.237 0.829-0.237 0.567 0 1.064 0.301 1.34 0.752l0.004 0.007c0.219 0.371 0.269 0.792 0.185 1.213-0.101 0.404-0.354 0.758-0.724 0.977-0.354 0.219-0.775 0.286-1.179 0.185-0.42-0.1-0.766-0.363-0.973-0.717l-0.004-0.007c-0.017-0.017-0.051-0.034-0.067-0.067 0.236-0.674 0.438-1.381 0.573-2.105zM9.112 16.707h15.461c-0.371 5.12-3.688 9.145-7.731 9.145s-7.36-4.025-7.731-9.145zM15.091 12.867h0.067c0.236 0 0.455-0.118 0.606-0.303 0.096-0.124 0.153-0.281 0.153-0.451 0-0.098-0.019-0.192-0.054-0.278l0.002 0.005c0-0.017-0.724-2.122 0.219-3.874 0.994-1.667 1.314-3.015 0.96-3.992-0.32-0.876-1.044-1.112-1.128-1.128-0.065-0.021-0.141-0.033-0.219-0.033-0.336 0-0.619 0.225-0.706 0.533l-0.001 0.005c-0.118 0.404 0.101 0.825 0.472 0.943 0 0 0.101 0.051 0.168 0.202 0.084 0.236 0.168 0.977-0.825 2.644l-0.034 0.051c-0.067 0.135-0.152 0.269-0.236 0.404-1.162 1.768-1.499 3.183-1.027 4.16 0.371 0.792 1.179 1.061 1.583 1.112zM19.116 13.002h0.051c0.219 0 0.421-0.101 0.556-0.269 0.152-0.202 0.185-0.455 0.118-0.691-0.017-0.017-0.421-1.213 0.101-2.173 0.657-1.095 0.859-1.971 0.606-2.661-0.236-0.64-0.741-0.825-0.842-0.842-0.371-0.118-0.775 0.118-0.893 0.472-0.051 0.185-0.034 0.387 0.067 0.556 0.084 0.168 0.236 0.286 0.421 0.337-0.051 0-0.084-0.017-0.084-0.017 0.017 0.034 0.118 0.387-0.472 1.381l-0.051 0.084c-0.034 0.067-0.084 0.135-0.118 0.202-0.775 1.196-0.977 2.105-0.657 2.796 0.269 0.556 0.792 0.792 1.196 0.825z"></path>
</symbol>
</defs>
</svg>
