<svg xmlns="http://www.w3.org/2000/svg" width="19" height="20" id="icon1"><style></style><g id="Partners"><g id="Partner 1"><path id="Shape 128" d="M16.66 6h-5.67l2.24-2.69c.03.01.06.02.1.02.37 0 .67-.3.67-.66a.67.67 0 00-1.34 0c0 .08.02.15.05.22L10.12 6h-.24L7.29 2.89c.02-.07.04-.14.04-.22 0-.37-.3-.67-.67-.67a.666.666 0 000 1.33c.04 0 .07-.01.11-.02L9.01 6H3.33C2.6 6 2 6.6 2 7.33v9.34c0 .74.6 1.33 1.33 1.33h13.33c.74 0 1.34-.59 1.34-1.33V7.33C18 6.6 17.4 6 16.66 6zM14 15.34c0 .73-.6 1.33-1.34 1.33H4.67c-.74 0-1.34-.6-1.34-1.33V8.67c0-.74.6-1.34 1.34-1.34h7.99c.74 0 1.34.6 1.34 1.34v6.67zm1.96-5.96c-.53 0-.95-.43-.95-.96a.95.95 0 111.9 0c0 .53-.42.96-.95.96z" fill="#fff"/></g></g></svg>